<svg width="16" height="18" viewBox="0 0 16 18" fill="none" xmlns="http://www.w3.org/2000/svg">
<path d="M0 15.9801C0 16.8694 0.767857 17.5909 1.71429 17.5909H14.2857C15.2321 17.5909 16 16.8694 16 15.9801V6.85227H0V15.9801ZM11.4286 9.4027C11.4286 9.18121 11.6214 9 11.8571 9H13.2857C13.5214 9 13.7143 9.18121 13.7143 9.4027V10.745C13.7143 10.9665 13.5214 11.1477 13.2857 11.1477H11.8571C11.6214 11.1477 11.4286 10.9665 11.4286 10.745V9.4027ZM11.4286 13.6982C11.4286 13.4767 11.6214 13.2955 11.8571 13.2955H13.2857C13.5214 13.2955 13.7143 13.4767 13.7143 13.6982V15.0405C13.7143 15.262 13.5214 15.4432 13.2857 15.4432H11.8571C11.6214 15.4432 11.4286 15.262 11.4286 15.0405V13.6982ZM6.85714 9.4027C6.85714 9.18121 7.05 9 7.28571 9H8.71429C8.95 9 9.14286 9.18121 9.14286 9.4027V10.745C9.14286 10.9665 8.95 11.1477 8.71429 11.1477H7.28571C7.05 11.1477 6.85714 10.9665 6.85714 10.745V9.4027ZM6.85714 13.6982C6.85714 13.4767 7.05 13.2955 7.28571 13.2955H8.71429C8.95 13.2955 9.14286 13.4767 9.14286 13.6982V15.0405C9.14286 15.262 8.95 15.4432 8.71429 15.4432H7.28571C7.05 15.4432 6.85714 15.262 6.85714 15.0405V13.6982ZM2.28571 9.4027C2.28571 9.18121 2.47857 9 2.71429 9H4.14286C4.37857 9 4.57143 9.18121 4.57143 9.4027V10.745C4.57143 10.9665 4.37857 11.1477 4.14286 11.1477H2.71429C2.47857 11.1477 2.28571 10.9665 2.28571 10.745V9.4027ZM2.28571 13.6982C2.28571 13.4767 2.47857 13.2955 2.71429 13.2955H4.14286C4.37857 13.2955 4.57143 13.4767 4.57143 13.6982V15.0405C4.57143 15.262 4.37857 15.4432 4.14286 15.4432H2.71429C2.47857 15.4432 2.28571 15.262 2.28571 15.0405V13.6982ZM14.2857 2.55682H12.5714V0.94602C12.5714 0.650707 12.3143 0.409088 12 0.409088H10.8571C10.5429 0.409088 10.2857 0.650707 10.2857 0.94602V2.55682H5.71429V0.94602C5.71429 0.650707 5.45714 0.409088 5.14286 0.409088H4C3.68571 0.409088 3.42857 0.650707 3.42857 0.94602V2.55682H1.71429C0.767857 2.55682 0 3.27832 0 4.16761V5.77841H16V4.16761C16 3.27832 15.2321 2.55682 14.2857 2.55682Z" fill="#DEAA4E"/>
</svg>
