<svg width="32" height="33" viewBox="0 0 32 33" fill="none" xmlns="http://www.w3.org/2000/svg">
<path d="M18.5794 16.3087C18.5794 15.2692 17.8638 14.4013 16.9017 14.1513V5.66553H15.7833V14.1514C14.8213 14.4014 14.1057 15.2694 14.1057 16.3088C14.1057 17.5424 15.1088 18.5456 16.3425 18.5456C16.7561 18.5456 17.1389 18.4252 17.4716 18.2287L23.612 24.3691L24.4027 23.5783L18.2623 17.4379C18.4589 17.1053 18.5794 16.7224 18.5794 16.3087ZM16.3426 17.4272C15.7261 17.4272 15.2242 16.9253 15.2242 16.3088C15.2242 15.6923 15.7261 15.1904 16.3426 15.1904C16.9591 15.1904 17.461 15.6923 17.461 16.3088C17.461 16.9253 16.959 17.4272 16.3426 17.4272Z" fill="white"/>
<path d="M31.9859 15.7496C31.6964 7.56037 25.0911 0.954891 16.9017 0.665575V0.651367H15.7833V0.665575C7.59407 0.954891 0.988582 7.56037 0.699266 15.7496H0.685059V16.868H0.699266C0.988582 25.0573 7.59407 31.6626 15.7833 31.9521V32.035H16.9017V31.9521C25.091 31.6628 31.6963 25.0573 31.9858 16.868H32V15.7496H31.9859ZM30.8675 16.868C30.7309 20.4555 29.2901 23.7132 27.0045 26.1799L25.5239 24.6995L24.7332 25.4902L26.2138 26.9707C23.747 29.2562 20.4893 30.6971 16.9018 30.8337V28.611H15.7835V30.8337C12.0554 30.6918 8.6836 29.1408 6.18523 26.6977L7.67242 25.2105L6.88168 24.4198L5.41644 25.885C3.28474 23.456 1.94867 20.3147 1.8175 16.868H4.5993V15.7496H1.8175C1.95957 12.0215 3.51049 8.64976 5.95346 6.15139L7.1611 7.35903L7.95184 6.56829L6.7663 5.38275C9.19521 3.25105 12.3366 1.91512 15.7835 1.78395V4.07537H16.9018V1.78395C20.4893 1.92057 23.747 3.36141 26.2138 5.64695L25.0129 6.84785L25.8036 7.63859L27.0045 6.43769C29.2901 8.90463 30.7309 12.1622 30.8675 15.7496H28.0857V16.868H30.8675Z" fill="white"/>
</svg>
