<svg width="24" height="36" viewBox="0 0 24 36" fill="none" xmlns="http://www.w3.org/2000/svg">
<path fill-rule="evenodd" clip-rule="evenodd" d="M10.9 18.4L9.4 20.1C9 19.6 6.5 16.5 5.8 14.4C5.1 12.1 4.9 11.2 4.9 10.6C4.9 10 4.9 7.9 5.8 6.6C5.7 5.4 6 4.6 6.2 4.1V4C6.2 4 3.7 6.6 3.4 9.2C3.2 11.8 4.2 15.3 5.3 17.1C6.5 18.9 8.6 21.8 10 23.4C11.4 25 14.1 28.3 14.1 28.3C14.1 28.3 15.4 29.8 15.2 31.5C15 33.1 13.1 34.3 12.4 34.5C11.7 34.7 9.4 35.3 8.9 32.9C8.7 30.9 11 30.5 11 30.5C11 30.5 11 28.5 9.2 28.5C7.4 28.5 6.6 30.2 6.6 30.7C6.6 30.7 6.5 30.8 6.4 30.2C6.3 29.6 6.3 25 6.3 25C6.3 25 6.5 18.8 2.5 18.7C2.5 18.7 0.6 18.6 0 20.5C0 20.5 2.3 21.2 3.1 26.5C4 31.7 5.5 34.2 6.8 34.8C8.1 35.5 10.9 36.4 14.2 34.5C17.5 32.6 16 29 15.2 27.6C14.3 26.3 11.2 22.2 9.8 20.7L11.3 19L12 18.3L14 16.1C14.5 16.7 17 19.8 17.6 22C18.3 24.4 18.9 26.8 17.5 29.7C17.5 29.7 17.6 30.8 17.1 32.2C17.1 32.2 19.4 30.6 19.8 26.2C20.2 21.9 17.3 17.8 16.4 16.6C15.6 15.4 11.9 11.2 10.4 9.6C8.9 8 7.5 6.1 8 4.4C8.5 2.7 10.8 1.3 13 1.7C15.2 2.1 14.3 5.6 12.1 5.7C12.1 5.7 12.4 8 14.7 7.4C14.7 7.4 16.2 6.9 16.6 5.4C16.6 5.4 16.8 6.6 16.8 8.1C16.7 9.5 16.4 15.5 19.5 17C19.5 17 21 17.7 22.3 16.6C22.3 16.6 23.4 15.6 23 15.3C23 15.3 20.8 14.4 19.8 8.8C18.7 3.2 17.1 1 13.6 0.700001C10 0.400001 7.2 2.5 6.8 4.7C6.2 7.2 9.6 10.9 9.6 10.9L13.4 15.4L11.4 17.6L10.9 18.4Z" fill="#D8B36A"/>
</svg>
